<svg xmlns="http://www.w3.org/2000/svg" version="1.1" xmlns:xlink="http://www.w3.org/1999/xlink" xmlns:svgjs="http://svgjs.com/svgjs" width="512" height="512"><svg width="512" height="512" viewBox="0 0 512 512" fill="none" xmlns="http://www.w3.org/2000/svg">
<rect width="512" height="512" fill="white"></rect>
<g filter="url(#filter0_i_940_775)">
<path d="M315.698 324.952C315.698 320.232 314.567 316.079 312.306 312.492C310.232 308.906 306.463 305.508 300.997 302.298C295.343 299.278 287.899 296.446 278.664 293.803C269.429 291.16 257.744 288.517 243.609 285.874C225.704 282.288 209.307 277.851 194.418 272.565C179.718 267.091 167.09 260.484 156.536 252.744C145.982 245.192 137.689 236.414 131.658 226.409C125.816 216.403 122.895 204.888 122.895 191.862C122.895 179.214 125.91 167.132 131.941 155.616C137.972 144.101 146.642 134.001 157.95 125.317C169.258 116.633 183.016 109.743 199.224 104.646C215.433 99.5485 233.714 97 254.069 97C275.366 97 294.495 99.5485 311.457 104.646C328.42 109.554 342.837 116.35 354.711 125.034C366.396 133.907 375.348 144.384 381.568 156.466C387.787 168.548 390.897 181.668 390.897 195.826H312.306C312.306 190.729 311.457 186.01 309.761 181.668C308.065 177.137 305.521 173.078 302.128 169.492C297.417 164.772 291.009 160.996 282.904 158.165C274.989 155.333 265.377 153.917 254.069 153.917C244.457 153.917 236.07 154.861 228.908 156.749C221.746 158.637 215.904 161.28 211.381 164.678C207.234 167.698 204.03 171.285 201.769 175.438C199.696 179.402 198.659 183.65 198.659 188.181C198.659 192.711 199.601 196.959 201.486 200.923C203.371 204.699 206.763 208.097 211.663 211.118C216.375 214.327 222.877 217.253 231.17 219.896C239.462 222.35 250.017 224.521 262.833 226.409C281.302 229.429 298.453 233.299 314.284 238.019C330.116 242.738 343.78 248.779 355.276 256.142C366.773 263.693 375.725 272.849 382.133 283.609C388.73 294.181 392.028 306.829 392.028 321.554C392.028 335.146 388.73 347.7 382.133 359.215C375.725 370.542 366.584 380.359 354.711 388.665C342.649 396.971 328.137 403.484 311.175 408.204C294.213 412.735 275.271 415 254.351 415C231.358 415 211.004 411.98 193.288 405.939C175.76 399.898 161.059 391.969 149.186 382.152C137.312 372.524 128.266 361.575 122.046 349.305C116.015 336.845 113 324.386 113 311.926H187.916C188.482 320.232 190.743 327.406 194.701 333.447C198.659 339.299 203.748 344.019 209.967 347.606C216.187 351.381 223.254 354.118 231.17 355.817C239.274 357.516 247.567 358.366 256.048 358.366C266.225 358.366 275.083 357.516 282.622 355.817C290.349 353.93 296.663 351.475 301.563 348.455C306.275 345.435 309.761 341.942 312.023 337.978C314.473 334.013 315.698 329.671 315.698 324.952Z" fill="black"></path>
</g>
<defs>
<filter id="SvgjsFilter1000" x="113" y="97" width="287" height="319" filterUnits="userSpaceOnUse" color-interpolation-filters="sRGB">
<feFlood flood-opacity="0" result="BackgroundImageFix"></feFlood>
<feBlend mode="normal" in="SourceGraphic" in2="BackgroundImageFix" result="shape"></feBlend>
<feColorMatrix in="SourceAlpha" type="matrix" values="0 0 0 0 0 0 0 0 0 0 0 0 0 0 0 0 0 0 127 0" result="hardAlpha"></feColorMatrix>
<feOffset dy="2"></feOffset>
<feGaussianBlur stdDeviation="0.5"></feGaussianBlur>
<feComposite in2="hardAlpha" operator="arithmetic" k2="-1" k3="1"></feComposite>
<feColorMatrix type="matrix" values="0 0 0 0 0 0 0 0 0 0 0 0 0 0 0 0 0 0 0.17 0"></feColorMatrix>
<feBlend mode="normal" in2="shape" result="effect1_innerShadow_940_775"></feBlend>
</filter>
</defs>
</svg><style>@media (prefers-color-scheme: light) { :root { filter: none; } }
</style></svg>